<svg width="39" height="33" viewBox="0 0 39 33" fill="none" xmlns="http://www.w3.org/2000/svg">
<path d="M35.3371 1.00164L34.585 2.46965C34.393 2.77045 34.1913 3.18077 33.9225 3.73005C33.8073 3.96382 33.6937 4.19923 33.5784 4.433L33.5768 4.43627C31.3172 9.05447 29.0593 13.6841 26.7116 18.4887C26.4572 18.0146 26.2652 17.6844 26.0987 17.3427C24.7225 14.5326 23.3335 11.7289 21.9636 8.91552H21.962L18.1086 1.00164H18.0445H16.0282L15.2521 2.70015C11.5394 10.341 7.80117 17.9672 4.06613 25.5966L1 32H3.64365H3.77648L5.82003 27.6548C9.36465 20.3131 12.9669 12.9992 16.5531 5.67705C16.7051 5.36645 16.8859 5.06892 17.1276 4.62754C18.1646 6.74129 19.0815 8.69646 20.0849 10.6042C20.4754 11.348 20.429 11.9268 20.0609 12.6624C17.5133 17.7596 14.9992 22.8748 12.482 27.9867L10.4576 31.9984H13.3685L16.0298 26.2816C16.5307 25.2713 17.0412 24.2643 17.5581 23.2622C17.7261 22.9352 18.2222 22.6018 18.5774 22.5903C19.1167 22.5707 19.6544 22.5592 20.1937 22.5511L27.3438 22.5282L29.2401 18.899C31.8757 13.5566 34.4842 8.20113 37.1006 2.84892C37.1247 2.79987 37.1471 2.74756 37.1711 2.69852L38 1H35.3371V1.00164ZM19.1103 20.0711C20.0353 18.1225 20.893 16.3161 21.8564 14.289C22.8502 16.3177 23.7383 18.1339 24.6873 20.0711C22.7638 20.0711 21.0019 20.0711 19.1103 20.0711Z" fill="#2958FF" stroke="#2958FF" stroke-width="1.18108" stroke-miterlimit="10"/>
</svg>
