<svg width="472" height="569" viewBox="0 0 472 569" fill="none" xmlns="http://www.w3.org/2000/svg">
<g clip-path="url(#clip0_263_977)">
<path d="M152.814 249.187C152.814 249.187 163.317 260.041 164.25 266.16L155.113 271.422L144.567 252.942L139.005 228.273C138.482 227.75 138.108 227.098 137.919 226.383C137.73 225.668 137.733 224.916 137.929 224.203C138.124 223.491 138.505 222.842 139.032 222.324C139.559 221.806 140.214 221.436 140.93 221.253C141.647 221.07 142.398 221.079 143.11 221.28C143.821 221.482 144.467 221.868 144.98 222.399C145.494 222.93 145.859 223.588 146.036 224.306C146.214 225.023 146.198 225.775 145.991 226.485L152.814 249.187Z" fill="#FFB6B6"/>
<path d="M250.229 223.162C250.049 222.445 250.061 221.693 250.265 220.983C250.469 220.272 250.858 219.628 251.391 219.116C251.924 218.604 252.583 218.243 253.302 218.068C254.02 217.893 254.772 217.911 255.481 218.121C256.19 218.331 256.83 218.724 257.338 219.262C257.846 219.799 258.202 220.461 258.371 221.181C258.54 221.901 258.516 222.652 258.3 223.359C258.085 224.067 257.686 224.704 257.145 225.207L250.671 249.653L239.447 267.73L230.512 262.132C231.671 256.052 242.569 245.595 242.569 245.595L250.229 223.162Z" fill="#FFB6B6"/>
<path d="M83.7892 311.831C83.7234 297.423 89.253 283.844 95.3993 271.068C101.75 257.866 108.98 244.914 112.569 230.601C114.665 222.719 115.175 214.499 114.069 206.418C113.852 204.978 111.663 205.59 111.879 207.022C114.079 221.642 109.322 236.202 103.399 249.388C97.5241 262.463 90.2009 274.901 85.6177 288.537C82.9815 296.024 81.5963 303.894 81.5176 311.831C81.5278 312.125 81.6519 312.404 81.8638 312.609C82.0757 312.814 82.3588 312.928 82.6534 312.928C82.948 312.928 83.2311 312.814 83.4429 312.609C83.6548 312.404 83.779 312.125 83.7892 311.831Z" fill="#E6E6E6"/>
<path d="M149.807 316.665C149.321 310.532 153.651 305.415 158.761 302.6C165.247 299.027 173.096 299.334 180.264 299.546C187.616 299.84 194.98 299.489 202.272 298.499C219.492 295.997 235.876 289.463 250.092 279.429C264.308 269.396 275.953 256.146 284.078 240.759C290.819 227.997 295.564 213.283 293.669 198.71C293.44 196.937 293.114 195.179 292.692 193.443C292.346 192.023 290.155 192.624 290.501 194.047C294.03 208.525 289.985 223.69 283.57 236.76C277.673 248.742 269.63 259.541 259.84 268.623C249.586 278.134 237.574 285.55 224.478 290.456C217.677 293 210.642 294.867 203.474 296.031C196.21 297.155 188.855 297.584 181.509 297.312C174.206 297.099 166.466 296.714 159.602 299.669C154.23 301.983 149.244 306.565 147.86 312.421C147.532 313.811 147.422 315.242 147.535 316.665C147.65 318.113 149.922 318.125 149.807 316.665Z" fill="#E6E6E6"/>
<path d="M381.162 106.694C378.489 105.49 375.862 104.332 373.348 103.264C372.969 103.105 372.59 102.938 372.212 102.779L372.166 102.757C369.902 101.787 367.633 100.838 365.359 99.9096C363.769 99.2583 362.187 98.6148 360.597 97.9863C359.976 97.7289 359.355 97.4865 358.726 97.2442C357.719 96.8429 356.705 96.4492 355.697 96.0554C354.865 95.7299 354.024 95.4118 353.191 95.0938C352.229 94.7228 351.268 94.3669 350.314 94.0035C349.178 93.5794 348.045 93.1604 346.914 92.7465C346.902 92.7404 346.889 92.7377 346.876 92.7389C346.02 92.4209 345.165 92.1105 344.317 91.8076C332.8 87.6581 321.116 83.9479 309.577 80.7752C309.16 80.6617 308.744 80.5481 308.327 80.4345C307.608 80.2376 306.889 80.0408 306.169 79.8439C304.897 79.5031 303.62 79.17 302.338 78.8444C301.134 78.5264 299.922 78.2235 298.711 77.9206C297.643 77.6556 296.576 77.3906 295.5 77.1331C294.448 76.8757 293.395 76.6258 292.335 76.3835C289.178 75.6414 286.025 74.9398 282.878 74.2785C282.856 74.2722 282.833 74.2697 282.81 74.2709C282.053 74.1043 281.303 73.9453 280.546 73.7939C269.052 71.439 257.36 69.546 245.798 68.1604C245.23 68.0922 244.662 68.0241 244.094 67.9635H244.079C243.981 67.9483 243.875 67.9408 243.776 67.9332C242.822 67.8196 241.868 67.7136 240.914 67.6152C239.657 67.4789 238.408 67.3502 237.151 67.229C234.175 66.9337 231.204 66.6763 228.239 66.4567C227.489 66.3961 226.747 66.3431 226.005 66.2976C225.149 66.2295 224.294 66.1765 223.446 66.1235C222.567 66.0629 221.689 66.0099 220.811 65.9645C220.477 65.9418 220.152 65.9266 219.826 65.9115C219.417 65.8812 219.001 65.8661 218.592 65.8433C217.979 65.8131 217.365 65.7828 216.752 65.7525C205.212 65.1997 193.529 65.1543 182.019 65.6162C181.383 65.6389 180.747 65.6692 180.104 65.6995H180.081C179.619 65.7222 179.157 65.7373 178.688 65.76C178.521 65.7676 178.347 65.7752 178.18 65.7828C177.037 65.8433 175.894 65.9039 174.75 65.9721C173.531 66.0402 172.32 66.1159 171.108 66.1992C170.344 66.2522 169.586 66.3052 168.829 66.3582C168.329 66.3961 167.83 66.434 167.322 66.4718C164.157 66.7141 160.992 66.9943 157.85 67.3123C156.797 67.4183 155.752 67.5243 154.707 67.6379C154.124 67.6985 153.549 67.759 152.973 67.8272C141.434 69.1296 129.743 70.9696 118.233 73.2866C117.476 73.438 116.711 73.597 115.947 73.756C115.931 73.756 115.916 73.7636 115.901 73.7636C115.788 73.7863 115.666 73.809 115.553 73.8393C114.765 73.9983 113.97 74.1649 113.183 74.3391C112.312 74.5208 111.449 74.7101 110.578 74.8994C109.851 75.0584 109.124 75.225 108.397 75.3916C106.686 75.7777 104.967 76.1715 103.256 76.5879C99.7729 77.4209 96.2923 78.3018 92.8142 79.2306C92.0268 79.4426 91.2317 79.6546 90.4366 79.8742C90.4308 79.8747 90.4254 79.8774 90.4215 79.8817C90.0126 79.9878 89.5961 80.1013 89.1873 80.2149C77.6779 83.38 65.9944 87.1205 54.4547 91.3457C53.6066 91.6561 52.7586 91.9666 51.903 92.2922C51.882 92.2936 51.8615 92.2988 51.8424 92.3073C49.5481 93.163 47.2411 94.0413 44.9216 94.9424C44.0811 95.2755 43.2331 95.6087 42.385 95.9419C41.5672 96.2675 40.7419 96.5931 39.9241 96.9262C39.2048 97.214 38.493 97.5017 37.7737 97.797C37.1982 98.0317 36.6303 98.2665 36.0548 98.5012C34.0861 99.319 32.12 100.147 30.1563 100.985C28.9675 101.5 27.7711 102.015 26.5823 102.537C26.1962 102.704 25.8024 102.87 25.4162 103.044C22.554 104.309 19.9493 105.483 17.4505 106.641C14.7894 107.872 12.5349 109.837 10.9521 112.305C9.36933 114.773 8.52403 117.641 8.51563 120.573V147.295C8.51561 149.676 9.07028 152.023 10.1357 154.152C11.201 156.281 12.7478 158.133 14.6533 159.56C16.5588 160.987 18.7706 161.951 21.1133 162.374C23.456 162.798 25.8652 162.669 28.1497 162C29.2779 161.666 30.4062 161.333 31.542 161C32.4884 160.72 33.4425 160.447 34.389 160.175C35.4264 159.879 36.4562 159.584 37.4935 159.289C39.8635 158.63 42.2487 157.971 44.6339 157.335C45.7469 157.04 46.86 156.745 47.9731 156.449C49.7222 155.987 51.4713 155.541 53.2205 155.094C53.7051 154.973 54.1897 154.852 54.6743 154.731C62.2841 152.822 69.9318 151.051 77.5189 149.445C78.2988 149.279 79.0787 149.12 79.851 148.961C83.0388 148.294 86.2089 147.663 89.3614 147.068L91.633 146.636H91.6557C92.3978 146.492 93.1398 146.356 93.8819 146.22C95.9566 145.841 98.0439 145.473 100.144 145.114C101.348 144.902 102.559 144.698 103.771 144.501C103.892 144.478 104.013 144.455 104.134 144.44C106.224 144.092 108.319 143.756 110.419 143.433C111.843 143.214 113.274 142.994 114.705 142.79C115.924 142.608 117.143 142.434 118.362 142.26C129.917 140.639 141.585 139.344 153.049 138.436C154.041 138.352 155.033 138.277 156.025 138.201C159.871 137.913 163.748 137.656 167.633 137.444C172.433 137.186 177.249 136.982 182.042 136.838C193.552 136.482 205.22 136.482 216.722 136.838C221.522 136.982 226.338 137.186 231.139 137.444C235.023 137.656 238.9 137.913 242.747 138.201C243.738 138.277 244.73 138.352 245.722 138.436C257.179 139.344 268.847 140.632 280.417 142.26C280.97 142.335 281.515 142.419 282.068 142.494C282.265 142.525 282.454 142.547 282.651 142.578C283.491 142.699 284.332 142.827 285.172 142.949C288.33 143.418 291.485 143.915 294.637 144.44C295.447 144.569 296.258 144.705 297.06 144.842C298.794 145.137 300.521 145.437 302.239 145.743C303.239 145.924 304.231 146.106 305.223 146.288C305.851 146.401 306.487 146.515 307.116 146.636C307.881 146.78 308.645 146.924 309.403 147.068C310.652 147.302 311.901 147.545 313.158 147.795C313.946 147.954 314.741 148.105 315.536 148.272C324.009 149.975 332.565 151.891 341.084 153.981C341.97 154.201 342.855 154.42 343.741 154.64C343.863 154.67 343.976 154.7 344.097 154.731C345.013 154.958 345.93 155.192 346.846 155.427C348.156 155.76 349.468 156.101 350.783 156.449C351.896 156.737 353.009 157.032 354.123 157.335C357.56 158.252 360.998 159.206 364.413 160.182C366.495 160.781 368.567 161.386 370.629 162H370.645C371.466 162.243 372.307 162.415 373.158 162.515C373.761 162.59 374.368 162.628 374.976 162.628C379.035 162.62 382.925 161 385.79 158.125C388.655 155.249 390.261 151.354 390.256 147.295V120.695C390.248 117.733 389.386 114.837 387.773 112.354C386.16 109.87 383.864 107.905 381.162 106.694Z" fill="#2958FF"/>
<path d="M53.9649 92.5726C53.668 92.3668 53.3266 92.2341 52.9687 92.1855C52.6107 92.1368 52.2464 92.1734 51.9053 92.2925C51.8844 92.2939 51.8638 92.2991 51.8447 92.3076C49.5504 93.1633 47.2435 94.0416 44.9239 94.9427C44.0835 95.2758 43.2354 95.609 42.3873 95.9422C41.5696 96.2678 40.7442 96.5934 39.9264 96.9265C39.2071 97.2143 38.4954 97.502 37.776 97.7973C37.2005 98.032 36.6326 98.2667 36.0572 98.5015C34.0885 99.3192 32.1223 100.147 30.1586 100.985C28.9698 101.5 27.7735 102.015 26.5847 102.537C26.1705 102.718 25.818 103.015 25.5705 103.393C25.323 103.771 25.1912 104.213 25.1914 104.665V159.766C25.1899 160.13 25.2742 160.489 25.4373 160.814C25.6004 161.139 25.8379 161.42 26.1303 161.636C26.3161 161.773 26.52 161.882 26.7361 161.962C27.1928 162.123 27.6889 162.133 28.152 161.992L31.5367 160.993C32.4832 160.72 33.4297 160.448 34.3762 160.175C35.4136 159.88 36.4509 159.584 37.4959 159.289C39.8659 158.63 42.2511 157.972 44.6363 157.336C45.7493 157.033 46.8624 156.737 47.9755 156.45C49.7246 155.988 51.4737 155.541 53.2229 155.094C53.6546 154.984 54.046 154.753 54.3511 154.428L54.3586 154.42C54.7474 153.994 54.9634 153.438 54.9644 152.861V94.4808C54.9647 94.1056 54.8738 93.7359 54.6997 93.4035C54.5256 93.0712 54.2735 92.786 53.9649 92.5726Z" fill="#3F3D56"/>
<path d="M117.826 74.2333C117.567 74.0202 117.265 73.867 116.94 73.7845C116.616 73.7021 116.277 73.6924 115.948 73.7563C115.933 73.7563 115.918 73.7638 115.902 73.7638C115.789 73.7865 115.668 73.8093 115.554 73.8396C114.767 73.9986 113.972 74.1652 113.184 74.3393C112.313 74.521 111.45 74.7103 110.579 74.8996C109.852 75.0586 109.126 75.2252 108.399 75.3918C106.687 75.778 104.969 76.1717 103.257 76.5882C99.7666 77.4211 96.2861 78.302 92.8156 79.2308C92.0887 79.4201 91.3542 79.617 90.6273 79.8138C90.5631 79.8306 90.4999 79.8508 90.438 79.8744C90.4322 79.875 90.4268 79.8777 90.4228 79.882C89.9811 80.049 89.6006 80.3462 89.3315 80.7342C89.0624 81.1223 88.9175 81.5829 88.916 82.0551V144.365C88.9152 144.704 88.9895 145.04 89.1335 145.348C89.2775 145.655 89.4876 145.927 89.7489 146.144C89.9281 146.294 90.1301 146.414 90.3471 146.5C90.6259 146.614 90.9242 146.674 91.2255 146.674C91.3626 146.673 91.4993 146.66 91.6344 146.636H91.6571C92.3991 146.492 93.1412 146.356 93.8832 146.22C95.9579 145.841 98.0453 145.473 100.145 145.114C101.349 144.902 102.561 144.698 103.772 144.501C103.893 144.478 104.015 144.456 104.136 144.441C106.226 144.092 108.32 143.757 110.42 143.433C111.844 143.214 113.275 142.994 114.706 142.79C115.372 142.684 116.039 142.593 116.705 142.495C117.146 142.434 117.56 142.244 117.894 141.949C118.143 141.732 118.342 141.465 118.479 141.164C118.617 140.864 118.688 140.538 118.689 140.208V76.0354C118.689 75.6896 118.612 75.3481 118.462 75.0362C118.313 74.7242 118.095 74.4499 117.826 74.2333Z" fill="#3F3D56"/>
<path d="M181.696 66.3433C181.267 65.9352 180.699 65.7051 180.106 65.6997H179.992C179.561 65.7224 179.122 65.7376 178.69 65.7603C178.524 65.7679 178.349 65.7754 178.183 65.783C177.039 65.8436 175.896 65.9042 174.753 65.9723C173.534 66.0404 172.322 66.1162 171.111 66.1995C170.346 66.2525 169.589 66.3055 168.831 66.3585C168.332 66.3963 167.832 66.4342 167.325 66.472C164.16 66.7144 160.994 66.9945 157.852 67.3125C156.8 67.4185 155.755 67.5245 154.71 67.6381C154.141 67.6994 153.614 67.9694 153.233 68.3959C152.851 68.8224 152.641 69.3752 152.643 69.9476V135.967C152.642 136.285 152.708 136.599 152.835 136.89C152.963 137.181 153.15 137.442 153.385 137.656C153.526 137.789 153.684 137.904 153.854 137.997C154.194 138.18 154.574 138.277 154.96 138.277C155.013 138.277 155.073 138.269 155.134 138.269C155.429 138.247 155.732 138.224 156.027 138.201C159.874 137.913 163.751 137.656 167.635 137.444C171.822 137.209 176.01 137.028 180.174 136.891C180.625 136.884 181.063 136.742 181.431 136.482C181.737 136.269 181.986 135.984 182.157 135.653C182.329 135.322 182.417 134.955 182.416 134.582V68.0243C182.417 67.7098 182.354 67.3984 182.23 67.1093C182.106 66.8202 181.925 66.5595 181.696 66.3433Z" fill="#3F3D56"/>
<path d="M244.095 67.9637H244.08C243.982 67.9486 243.876 67.941 243.777 67.9334C242.823 67.8199 241.869 67.7138 240.915 67.6154C239.658 67.4791 238.409 67.3504 237.152 67.2292C234.176 66.9339 231.205 66.6765 228.24 66.4569C227.49 66.3963 226.748 66.3433 226.006 66.2979C225.15 66.2297 224.295 66.1767 223.447 66.1237C222.568 66.0632 221.69 66.0102 220.812 65.9647C220.479 65.942 220.153 65.9269 219.827 65.9117C219.479 65.889 219.138 65.8663 218.798 65.8511C218.73 65.8448 218.661 65.8423 218.593 65.8436C218.029 65.8604 217.492 66.0872 217.086 66.4796C216.856 66.6963 216.673 66.958 216.548 67.2484C216.423 67.5389 216.358 67.8519 216.359 68.1682V134.582C216.357 134.955 216.447 135.324 216.62 135.655C216.793 135.986 217.044 136.27 217.351 136.482C217.717 136.742 218.153 136.884 218.601 136.891C222.765 137.028 226.953 137.209 231.14 137.444C235.024 137.656 238.901 137.913 242.748 138.201C243.043 138.224 243.346 138.247 243.641 138.269C243.702 138.269 243.755 138.277 243.815 138.277C244.201 138.277 244.581 138.18 244.921 137.997C245.091 137.904 245.249 137.789 245.39 137.656C245.623 137.441 245.81 137.18 245.937 136.889C246.065 136.598 246.131 136.285 246.132 135.967V70.2656C246.13 69.6999 245.923 69.1543 245.548 68.7307C245.173 68.3071 244.657 68.0345 244.095 67.9637Z" fill="#3F3D56"/>
<path d="M308.327 80.4346C308.268 80.411 308.207 80.3908 308.146 80.374C307.487 80.1923 306.828 80.0181 306.169 79.844C304.897 79.5032 303.62 79.1701 302.338 78.8445C301.134 78.5265 299.923 78.2236 298.711 77.9207C297.643 77.6557 296.576 77.3907 295.5 77.1332C294.448 76.8758 293.395 76.6259 292.335 76.3836C289.178 75.6415 286.025 74.9398 282.878 74.2786C282.856 74.2723 282.833 74.2698 282.81 74.271C282.483 74.2099 282.148 74.221 281.826 74.3034C281.504 74.3858 281.204 74.5376 280.947 74.7481C280.678 74.9646 280.46 75.239 280.311 75.5509C280.161 75.8628 280.084 76.2043 280.084 76.5502V140.208C280.085 140.539 280.157 140.865 280.295 141.166C280.434 141.467 280.636 141.734 280.887 141.949C281.218 142.244 281.629 142.433 282.068 142.494C282.265 142.525 282.454 142.547 282.651 142.578C283.491 142.699 284.332 142.82 285.172 142.949C288.33 143.418 291.485 143.915 294.637 144.44C295.448 144.569 296.258 144.705 297.06 144.842C298.794 145.137 300.521 145.437 302.24 145.743C303.239 145.924 304.231 146.106 305.223 146.288C305.851 146.401 306.487 146.515 307.116 146.636C307.259 146.66 307.403 146.673 307.548 146.674C307.849 146.674 308.147 146.615 308.426 146.5C308.644 146.416 308.846 146.295 309.024 146.144C309.285 145.927 309.496 145.655 309.64 145.347C309.784 145.04 309.858 144.704 309.857 144.365V82.6153C309.856 82.1389 309.709 81.6743 309.435 81.2842C309.162 80.8942 308.775 80.5976 308.327 80.4346Z" fill="#3F3D56"/>
<path d="M372.213 102.779L372.168 102.757C369.904 101.787 367.635 100.838 365.36 99.9096C363.77 99.2584 362.188 98.6148 360.598 97.9863C359.977 97.7289 359.356 97.4866 358.727 97.2443C357.72 96.843 356.706 96.4492 355.699 96.0555C354.866 95.7299 354.025 95.4119 353.192 95.0938C352.231 94.7228 351.269 94.3669 350.315 94.0035C349.179 93.5795 348.046 93.1605 346.915 92.7465C346.903 92.7404 346.89 92.7378 346.877 92.739C346.534 92.6153 346.166 92.577 345.804 92.6271C345.443 92.6772 345.099 92.8143 344.803 93.0267C344.496 93.2401 344.246 93.5244 344.073 93.8553C343.901 94.1862 343.811 94.554 343.811 94.9273V152.86C343.811 153.341 343.962 153.81 344.242 154.201C344.296 154.277 344.354 154.35 344.416 154.42L344.424 154.428C344.728 154.754 345.12 154.986 345.552 155.094C345.984 155.2 346.415 155.314 346.847 155.427C348.157 155.76 349.469 156.101 350.784 156.449C351.897 156.737 353.011 157.032 354.124 157.335C357.561 158.252 360.999 159.206 364.414 160.182C366.496 160.781 368.568 161.386 370.63 162H370.646C370.855 162.059 371.072 162.09 371.289 162.091C371.545 162.09 371.798 162.046 372.039 161.962C372.256 161.885 372.461 161.775 372.645 161.636C372.935 161.419 373.17 161.136 373.332 160.811C373.494 160.487 373.577 160.129 373.576 159.766V104.892C373.577 104.446 373.449 104.009 373.207 103.634C372.965 103.259 372.62 102.962 372.213 102.779Z" fill="#3F3D56"/>
<path d="M31.5946 161.037C41.455 167.682 51.7506 173.656 62.1262 179.452C73.2258 185.653 84.4413 191.643 95.5429 197.84C106.711 204.074 117.781 210.509 128.459 217.558C138.843 224.278 148.66 231.836 157.813 240.154C166.481 248.178 174.333 257.145 180.505 267.242C181.241 268.447 181.952 269.665 182.639 270.898C183.351 272.175 185.314 271.031 184.6 269.752C178.722 259.458 171.403 250.057 162.866 241.833C153.939 233.237 144.274 225.442 133.982 218.538C123.374 211.277 112.315 204.697 101.129 198.372C89.9754 192.065 78.6772 186.021 67.465 179.82C56.9106 173.983 46.409 168.019 36.2991 161.434C35.1069 160.657 33.9209 159.871 32.7411 159.076C31.5255 158.257 30.3873 160.224 31.5946 161.037Z" fill="#3F3D56"/>
<path d="M69.9193 134.381C74.6436 145.027 80.448 155.16 87.2411 164.622C94.1934 174.311 101.63 183.644 109.522 192.584C117.416 201.679 125.547 210.564 133.498 219.608C141.359 228.549 149.067 237.648 156.106 247.257C163.09 256.61 169.157 266.615 174.22 277.133C174.833 278.437 175.425 279.75 175.997 281.073C176.577 282.41 178.534 281.255 177.958 279.926C173.234 269.28 167.43 259.147 160.637 249.685C153.684 239.996 146.248 230.663 138.356 221.723C130.462 212.628 122.331 203.743 114.38 194.699C106.519 185.758 98.811 176.659 91.7722 167.05C84.7875 157.697 78.7212 147.692 73.6577 137.174C73.0449 135.87 72.4526 134.557 71.8807 133.234C71.301 131.897 69.3434 133.052 69.9193 134.381Z" fill="#3F3D56"/>
<path d="M347.596 147.927C338.933 156.194 329.758 163.907 320.125 171.022C310.13 178.545 299.864 185.697 289.648 192.915C279.45 200.122 269.287 207.391 259.494 215.145C250.044 222.476 241.17 230.519 232.95 239.206C225.278 247.477 218.402 256.587 213.248 266.649C212.628 267.859 212.034 269.082 211.465 270.317C210.857 271.635 212.814 272.791 213.427 271.463C218.223 261.35 224.467 251.989 231.963 243.676C239.889 234.886 248.529 226.766 257.794 219.401C267.421 211.587 277.475 204.318 287.585 197.148C297.809 189.898 308.112 182.757 318.181 175.292C327.907 168.218 337.23 160.603 346.103 152.484C347.146 151.512 348.18 150.528 349.202 149.533C350.253 148.512 348.646 146.907 347.596 147.927Z" fill="#3F3D56"/>
<path d="M324.184 127.017C319.46 137.663 313.656 147.796 306.863 157.257C299.905 166.943 292.46 176.269 284.556 185.199C276.654 194.287 268.522 203.172 260.577 212.221C252.721 221.168 245.037 230.284 237.998 239.893C231.013 249.246 224.947 259.251 219.884 269.769C219.271 271.073 218.679 272.386 218.107 273.708C217.531 275.036 219.488 276.194 220.068 274.855C224.792 264.209 230.597 254.075 237.39 244.614C244.347 234.929 251.792 225.603 259.696 216.673C267.598 207.585 275.73 198.7 283.676 189.651C291.531 180.704 299.216 171.588 306.254 161.979C313.239 152.626 319.305 142.621 324.369 132.103C324.982 130.799 325.574 129.486 326.146 128.163C326.721 126.836 324.765 125.678 324.184 127.017Z" fill="#3F3D56"/>
<path d="M156.49 415.429L157.922 420.395L177.762 417.237L175.649 409.906L156.49 415.429Z" fill="#FFB6B6"/>
<path d="M151.258 416.747L155.66 432.021L155.853 431.965C157.43 431.511 158.762 430.448 159.555 429.012C160.349 427.576 160.539 425.883 160.085 424.307L161.398 420.906L157.781 416.311L157.396 414.977L151.258 416.747Z" fill="#2F2E41"/>
<path d="M241.675 439.825L246.718 438.692L244.747 418.699L237.303 420.372L241.675 439.825Z" fill="#FFB6B6"/>
<path d="M241.209 445.49L256.718 442.004L256.674 441.808C256.315 440.207 255.334 438.815 253.947 437.937C252.561 437.059 250.882 436.768 249.281 437.128L245.965 435.615L241.162 438.952L239.809 439.257L241.209 445.49Z" fill="#2F2E41"/>
<path d="M226.239 332.747L249.077 426.457L237.905 427.447L225.527 396.086L206.419 359.173L208.146 401.305L172.596 422.095L164.242 410.651L192.662 395.366L180.247 339.608L183.552 332.747L226.239 332.747Z" fill="#2F2E41"/>
<path d="M180.48 340.953C176.778 335.77 183.627 327.236 184.466 325.431C183.469 325.107 182.615 324.448 182.049 323.565C181.483 322.682 181.241 321.631 181.364 320.589L181.726 317.512L182.103 314.493L179.4 311.79L179.392 311.723L177.836 298.109L175.574 289.067C174.722 285.649 174.794 282.066 175.785 278.685C176.775 275.304 178.647 272.248 181.208 269.83L186.437 268.999L192.792 262.876H203.04L206.553 266.233C213.113 267.384 214.239 267.008 219.874 273.769L217.314 294.79L216.675 297.682L216.677 301.604L218.3 303.409C218.885 304.059 219.31 304.836 219.542 305.679C219.773 306.523 219.804 307.408 219.633 308.266L219.419 309.334C221.094 310.051 222.692 322.805 223.073 324.587L223.644 327.248C224.132 327.892 227.352 332.186 227.352 333.36C227.352 333.536 227.222 333.706 226.943 333.895C224.748 335.381 205.536 339.316 200.167 337.167C194.448 334.881 180.48 340.953 180.48 340.953Z" fill="#E6E6E6"/>
<path d="M159.946 278.582L164.452 284.093C166.147 286.167 168.236 287.885 170.599 289.149C172.961 290.412 175.55 291.196 178.216 291.456C179.869 291.611 181.531 291.3 183.017 290.56C184.502 289.819 185.75 288.678 186.621 287.265C187.788 285.342 188.181 283.047 187.721 280.845C187.261 278.642 185.982 276.697 184.143 275.402C178.561 271.478 175.516 265.4 171.128 267.371L170.183 265.052L157.811 255.055L147.67 263.756L159.946 278.582Z" fill="#E6E6E6"/>
<path d="M247.168 260.346L237.358 251.274L229.706 256.146L228.676 258.428C224.364 256.296 216.012 266.916 210.289 270.63C208.403 271.856 207.052 273.753 206.511 275.936C205.969 278.12 206.277 280.428 207.373 282.393C208.19 283.837 209.395 285.024 210.852 285.819C212.309 286.614 213.959 286.986 215.616 286.893C218.29 286.733 220.906 286.045 223.313 284.87C225.721 283.695 227.872 282.055 229.644 280.046L234.351 274.706L247.168 260.346Z" fill="#E6E6E6"/>
<path d="M197.225 259.919C203.51 259.919 208.605 254.823 208.605 248.538C208.605 242.253 203.51 237.157 197.225 237.157C190.939 237.157 185.844 242.253 185.844 248.538C185.844 254.823 190.939 259.919 197.225 259.919Z" fill="#FFB6B6"/>
<path d="M188.966 256.56C188.867 256.472 188.773 256.379 188.676 256.29C188.672 256.299 188.672 256.308 188.668 256.318L188.966 256.56Z" fill="#2F2E41"/>
<path d="M207.908 244.269C207.847 244.231 207.794 244.193 207.734 244.163C206.986 243.575 206.058 243.262 205.106 243.277C204.198 243.391 203.448 244.042 202.577 244.299C200.707 244.844 198.822 243.512 196.883 243.376H196.838C196.22 243.337 195.601 243.42 195.016 243.62C194.43 243.821 193.89 244.135 193.426 244.544C192.962 244.953 192.583 245.45 192.311 246.005C192.039 246.561 191.879 247.165 191.84 247.782C191.802 248.411 191.886 249.039 191.81 249.66C191.789 249.975 191.691 250.28 191.525 250.548C191.359 250.816 191.129 251.039 190.856 251.197C190 251.584 188.849 251.008 188.122 251.606C187.479 252.144 187.714 253.189 188.1 253.938C188.551 254.57 188.772 255.337 188.728 256.112C188.714 256.173 188.696 256.234 188.675 256.293C186.923 254.661 185.532 252.68 184.593 250.477C183.654 248.274 183.187 245.899 183.223 243.504C183.193 242.449 183.411 241.401 183.859 240.445C184.085 239.969 184.425 239.555 184.849 239.242C185.273 238.929 185.768 238.726 186.29 238.651C187.184 238.575 188.107 238.976 188.955 238.688C190 238.34 190.44 237.136 190.985 236.167C191.657 235.011 192.634 234.063 193.81 233.426C194.985 232.789 196.313 232.488 197.648 232.555C198.609 232.649 199.557 232.84 200.48 233.123L202.282 233.615C202.969 233.777 203.637 234.013 204.273 234.319C205.204 234.854 205.987 235.611 206.553 236.523C207.033 237.256 207.412 238.051 207.681 238.885C206.683 238.937 205.682 238.902 204.69 238.779C205.826 239.484 206.969 240.188 208.105 240.892C208.24 242.02 208.173 243.164 207.908 244.269Z" fill="#2F2E41"/>
<path d="M387.395 74.8595C408.066 74.8595 424.824 58.1017 424.824 37.4298C424.824 16.7579 408.066 0 387.395 0C366.723 0 349.965 16.7579 349.965 37.4298C349.965 58.1017 366.723 74.8595 387.395 74.8595Z" fill="#FFC165"/>
<path d="M471.172 19.7076C469.006 12.4537 462.888 7.72118 455.498 6.68382C455.422 6.67625 455.339 6.69136 455.263 6.68382C455.159 6.6506 455.053 6.62529 454.945 6.6081C444.476 5.33458 433.885 7.64029 424.892 13.1503C422.835 14.4361 420.683 15.565 418.456 16.5274C411.315 19.538 403.676 21.1916 395.93 21.4037C395.869 21.4037 395.808 21.4112 395.748 21.4112C391.954 21.6634 388.33 23.0789 385.369 25.465C382.409 27.851 380.256 31.0916 379.203 34.7455C379.092 35.1922 379.125 35.6629 379.3 36.0891C379.474 36.5153 379.78 36.8749 380.172 37.1154C381.302 38.0735 382.64 38.7553 384.079 39.1069C387.192 39.7656 390.311 40.3689 393.438 40.9166C399.549 41.9842 405.69 42.8474 411.861 43.5062C415.95 43.9453 420.046 44.2886 424.15 44.536C432.616 45.066 441.119 45.1947 449.6 44.9297C453.795 44.801 457.838 44.6647 461.685 42.8096C464.481 41.4298 466.869 39.3445 468.613 36.7596C470.258 34.2762 471.339 31.4629 471.782 28.5171C472.224 25.5713 472.016 22.5644 471.172 19.7076Z" fill="#F2F2F2"/>
<path d="M324.533 298.545C322.973 293.32 318.566 289.905 313.236 289.156C313.175 289.148 313.122 289.163 313.061 289.156C312.987 289.134 312.911 289.116 312.834 289.103C305.285 288.18 297.646 289.843 291.163 293.82C284.916 297.719 277.64 299.484 270.28 299.771C270.237 299.77 270.194 299.773 270.151 299.779C267.417 299.961 264.805 300.982 262.671 302.701C260.537 304.42 258.985 306.755 258.225 309.388C258.144 309.71 258.167 310.05 258.293 310.358C258.418 310.666 258.639 310.925 258.922 311.099C259.735 311.791 260.7 312.282 261.739 312.53C263.98 313.007 266.236 313.439 268.493 313.84C272.892 314.605 277.329 315.226 281.774 315.703C290.808 316.674 299.899 317.018 308.98 316.733C312.001 316.642 314.917 316.543 317.688 315.203C319.707 314.209 321.432 312.706 322.693 310.842C323.878 309.05 324.656 307.021 324.974 304.897C325.292 302.773 325.141 300.605 324.533 298.545Z" fill="#F2F2F2"/>
<path d="M85.2595 236.455C83.6996 231.23 79.2928 227.815 73.9621 227.066C73.9015 227.058 73.8485 227.073 73.788 227.066C73.7133 227.043 73.6375 227.026 73.5608 227.012C66.0116 226.09 58.3727 227.753 51.8899 231.73C45.643 235.629 38.3663 237.394 31.0064 237.681C30.9634 237.68 30.9203 237.683 30.8777 237.689C28.1435 237.871 25.5317 238.891 23.3979 240.611C21.264 242.33 19.7116 244.665 18.9519 247.298C18.8704 247.62 18.894 247.96 19.0194 248.268C19.1447 248.576 19.3651 248.835 19.6485 249.009C20.4615 249.701 21.4267 250.192 22.4652 250.44C24.7065 250.917 26.963 251.349 29.2194 251.75C33.6187 252.515 38.0559 253.136 42.5006 253.613C51.5346 254.584 60.6251 254.928 69.7067 254.643C72.7279 254.552 75.6431 254.453 78.4144 253.113C80.4335 252.119 82.1585 250.616 83.4195 248.752C84.6042 246.96 85.3827 244.931 85.7006 242.807C86.0184 240.683 85.8679 238.515 85.2595 236.455Z" fill="#F2F2F2"/>
<path d="M148.051 560.328C150.61 563.137 153.094 566.007 155.502 568.937C119.7 562.533 85.4596 549.321 54.6355 530.017C53.9919 529.616 53.3558 529.215 52.7198 528.806C35.2293 517.666 18.9964 504.665 4.30469 490.03C6.87915 487.614 8.46926 486.176 8.46926 486.176C44.3982 447.589 48.4265 434.005 84.3554 395.418C96.304 443.833 146.544 477.468 172.894 519.803C165.211 525.164 156.805 529.409 147.93 532.41C147.869 532.478 147.808 532.554 147.748 532.622C144.403 536.479 142.587 541.428 142.643 546.532C142.699 551.637 144.623 556.545 148.051 560.328Z" fill="#F2F2F2"/>
<path d="M457.728 423.927C436.211 463.377 405.751 497.238 368.788 522.794C368.001 523.339 367.213 523.884 366.418 524.422C340.237 542.147 311.287 555.389 280.757 563.606C279.291 562.478 277.645 561.605 275.888 561.024V561.009C277.857 557.329 279.825 553.649 281.794 549.969C274.994 556.905 263.137 558.094 255.095 552.657C256.417 549.671 258.305 546.969 260.653 544.699C258.684 545.6 255.625 544.298 254.777 542.026C253.71 539.187 254.921 536.045 256.193 533.288C270.224 502.94 316.193 453.806 316.913 453.041C316.421 453.344 295.431 466.526 283.255 465.55C282.634 461.824 266.483 457.273 264.681 455.381C272.019 438.881 306.047 408.184 306.047 408.184C341.976 369.598 346.004 356.014 381.933 317.427C392.155 358.846 430.394 389.444 457.728 423.927Z" fill="#F2F2F2"/>
<g opacity="0.2">
<path d="M0 149.963C0.223539 149.667 0.457814 149.382 0.685654 149.09L0.69804 148.974L0 149.963Z" fill="black"/>
<path d="M388.717 153.085C387.461 156.072 385.269 158.57 382.471 160.203C379.673 161.836 376.42 162.516 373.202 162.141C372.367 162.041 371.541 161.871 370.734 161.634C361.882 158.999 353.033 156.576 344.186 154.365C332.616 151.457 321.047 148.901 309.477 146.695C299.807 144.847 290.138 143.244 280.468 141.886C268.891 140.258 257.318 138.981 245.751 138.055C236.082 137.275 226.41 136.743 216.735 136.457C205.165 136.101 193.598 136.101 182.033 136.457C172.364 136.745 162.692 137.278 153.017 138.055C141.447 138.979 129.877 140.256 118.307 141.886C108.638 143.249 98.9661 144.852 89.2916 146.695C77.7217 148.898 66.1517 151.455 54.5818 154.365C45.7301 156.584 36.8836 159.007 28.0421 161.634C27.2347 161.871 26.409 162.041 25.5736 162.141C23.4783 162.387 21.3549 162.185 19.3429 161.551C17.331 160.917 15.4762 159.864 13.9004 158.461C12.3247 157.058 11.0638 155.338 10.2007 153.413C9.33753 151.488 8.89172 149.402 8.89258 147.293V140.296C25.9673 124.857 50.1219 117.702 73.4132 115.263C101.111 112.363 129.256 114.839 156.803 110.728C179.262 107.373 201.576 99.6424 224.125 102.33C243.775 104.663 261.682 114.733 281.059 118.762C305.365 123.812 331.026 119.17 355.113 125.175C364.555 127.522 373.808 131.649 380.555 138.653C384.464 142.688 387.274 147.656 388.717 153.085Z" fill="black"/>
</g>
<path d="M377.352 381.357C376.663 392.677 375.976 404 375.292 415.325C374.081 435.33 372.869 455.338 371.658 475.348C370.704 491.166 369.747 506.981 368.788 522.794C368.001 523.339 367.213 523.884 366.418 524.422C366.88 516.873 367.337 509.323 367.788 501.774C369 481.761 370.212 461.754 371.423 441.751C372.642 421.617 373.861 401.486 375.08 381.357C375.164 379.896 377.435 379.896 377.352 381.357Z" fill="white"/>
<path d="M302.809 437.127L342.841 403.374L354.073 393.903C355.192 392.96 353.578 391.36 352.466 392.297L312.434 426.05L301.202 435.52C300.083 436.464 301.697 438.064 302.809 437.127Z" fill="white"/>
<path d="M307.921 500.612L337.112 474.856C338.21 473.887 336.598 472.285 335.505 473.249L306.315 499.006C305.216 499.975 306.828 501.577 307.921 500.612Z" fill="white"/>
<path d="M27.0009 489.254L56.1917 463.498C57.29 462.529 55.6784 460.927 54.5854 461.892L25.3946 487.648C24.2963 488.617 25.9079 490.219 27.0009 489.254Z" fill="white"/>
<path d="M403.271 414.988C407.103 414.825 410.912 415.65 414.333 417.385C417.754 419.119 420.671 421.705 422.804 424.892C423.602 426.11 425.57 424.973 424.765 423.746C422.429 420.218 419.225 417.351 415.461 415.419C411.696 413.488 407.498 412.557 403.271 412.716C401.815 412.784 401.807 415.056 403.271 414.988Z" fill="white"/>
<path d="M85.1639 457.598C104.588 466.842 120.145 482.621 129.114 502.174C129.723 503.501 131.681 502.348 131.075 501.027C123.943 485.624 112.791 472.428 98.7932 462.828C94.8277 460.107 90.6538 457.702 86.3104 455.636C84.9972 455.011 83.8432 456.969 85.1639 457.598Z" fill="white"/>
<path d="M83.7052 441.804C82.1453 450.474 80.2422 459.073 77.9959 467.602C74.0265 482.664 69.0015 497.428 62.958 511.784C60.3684 517.948 57.5945 524.025 54.6364 530.017C53.9928 529.616 53.3567 529.215 52.7207 528.806C59.4891 515.051 65.2932 500.842 70.0908 486.282C74.9514 471.543 78.7671 456.481 81.5093 441.206C81.7667 439.767 83.9626 440.381 83.7052 441.804Z" fill="white"/>
<path d="M104.989 338.725C111.08 338.725 116.017 333.788 116.017 327.697C116.017 321.606 111.08 316.669 104.989 316.669C98.8984 316.669 93.9609 321.606 93.9609 327.697C93.9609 333.788 98.8984 338.725 104.989 338.725Z" fill="#E6E6E6"/>
<path d="M103.485 333.437C103.295 333.437 103.107 333.392 102.937 333.307C102.766 333.222 102.618 333.098 102.504 332.946L99.4953 328.934C99.3001 328.674 99.2163 328.347 99.2623 328.025C99.3084 327.703 99.4804 327.412 99.7407 327.217C100.001 327.022 100.328 326.938 100.65 326.984C100.972 327.03 101.263 327.202 101.458 327.462L103.426 330.087L108.482 322.504C108.571 322.369 108.686 322.253 108.82 322.162C108.954 322.072 109.104 322.009 109.262 321.977C109.421 321.945 109.584 321.944 109.742 321.975C109.901 322.007 110.052 322.069 110.186 322.158C110.321 322.248 110.436 322.363 110.526 322.498C110.616 322.632 110.678 322.783 110.709 322.941C110.741 323.1 110.74 323.263 110.708 323.421C110.676 323.58 110.614 323.73 110.523 323.864L104.506 332.89C104.397 333.054 104.251 333.188 104.079 333.283C103.907 333.378 103.716 333.431 103.519 333.436L103.485 333.437Z" fill="white"/>
<path d="M126.227 338.725C132.318 338.725 137.255 333.788 137.255 327.697C137.255 321.606 132.318 316.669 126.227 316.669C120.137 316.669 115.199 321.606 115.199 327.697C115.199 333.788 120.137 338.725 126.227 338.725Z" fill="#E6E6E6"/>
<path d="M124.724 333.437C124.533 333.437 124.345 333.392 124.175 333.307C124.005 333.222 123.856 333.098 123.742 332.946L120.734 328.934C120.538 328.674 120.455 328.347 120.501 328.025C120.547 327.703 120.719 327.412 120.979 327.217C121.239 327.022 121.566 326.938 121.888 326.984C122.211 327.03 122.501 327.202 122.696 327.462L124.665 330.087L129.72 322.504C129.809 322.369 129.924 322.253 130.058 322.162C130.192 322.072 130.342 322.009 130.501 321.977C130.659 321.945 130.822 321.944 130.981 321.975C131.139 322.007 131.29 322.069 131.425 322.158C131.559 322.248 131.674 322.363 131.764 322.498C131.854 322.632 131.916 322.783 131.948 322.941C131.979 323.1 131.979 323.263 131.947 323.421C131.915 323.58 131.852 323.73 131.762 323.864L125.744 332.89C125.635 333.054 125.489 333.188 125.317 333.283C125.146 333.378 124.954 333.431 124.758 333.436L124.724 333.437Z" fill="white"/>
<path d="M115.321 320.931C121.412 320.931 126.349 315.993 126.349 309.903C126.349 303.812 121.412 298.875 115.321 298.875C109.23 298.875 104.293 303.812 104.293 309.903C104.293 315.993 109.23 320.931 115.321 320.931Z" fill="#E6E6E6"/>
<path d="M113.815 315.643C113.625 315.643 113.437 315.598 113.267 315.513C113.096 315.428 112.948 315.304 112.834 315.152L109.825 311.14C109.63 310.88 109.546 310.553 109.592 310.231C109.638 309.909 109.811 309.618 110.071 309.423C110.331 309.228 110.658 309.144 110.98 309.19C111.302 309.236 111.593 309.408 111.788 309.668L113.757 312.292L118.812 304.709C118.993 304.44 119.274 304.254 119.592 304.191C119.91 304.128 120.24 304.194 120.51 304.374C120.78 304.554 120.967 304.833 121.032 305.151C121.096 305.469 121.032 305.8 120.853 306.07L114.836 315.096C114.727 315.26 114.581 315.394 114.409 315.489C114.238 315.584 114.046 315.637 113.849 315.642L113.815 315.643Z" fill="white"/>
<path d="M147.209 310.658L145.581 310.821L137.545 332.059H93.9206L85.8845 310.821L84.256 310.658C83.7362 310.606 83.2112 310.663 82.7149 310.827C82.2187 310.99 81.7621 311.255 81.3748 311.606C80.9874 311.957 80.6778 312.384 80.4659 312.862C80.254 313.34 80.1445 313.856 80.1445 314.379V362.519C80.1445 364.399 80.5147 366.26 81.2339 367.996C81.9531 369.733 83.0073 371.31 84.3363 372.639C85.6653 373.968 87.243 375.022 88.9793 375.742C90.7157 376.461 92.5767 376.831 94.4562 376.831H137.009C138.889 376.831 140.75 376.461 142.486 375.742C144.222 375.022 145.8 373.968 147.129 372.639C148.458 371.31 149.512 369.733 150.232 367.996C150.951 366.26 151.321 364.399 151.321 362.519V314.379C151.321 313.856 151.211 313.34 151 312.862C150.788 312.384 150.478 311.957 150.091 311.606C149.703 311.255 149.247 310.99 148.751 310.827C148.254 310.663 147.729 310.606 147.209 310.658Z" fill="#F2F2F2"/>
<path d="M208.7 262.585C208.162 261.001 206.086 260.702 204.413 260.707C200.685 260.718 196.96 260.877 193.24 261.183L193.613 260.752C192.625 260.335 191.537 260.213 190.481 260.4C189.455 260.692 188.612 261.87 189.075 262.83C189.424 263.552 190.396 264.01 190.327 264.808C190.208 266.159 187.594 265.71 187.187 267.003C187.131 267.26 187.156 267.528 187.259 267.77C187.362 268.012 187.537 268.217 187.76 268.355C188.213 268.623 188.721 268.784 189.245 268.826C194.779 269.629 200.427 268.901 205.575 266.72C206.475 266.393 207.296 265.881 207.985 265.216C208.325 264.879 208.57 264.458 208.696 263.996C208.822 263.534 208.823 263.047 208.7 262.585Z" fill="#E6E6E6"/>
</g>
<defs>
<clipPath id="clip0_263_977">
<rect width="472" height="568.937" fill="white"/>
</clipPath>
</defs>
</svg>
