<svg width="30" height="30" viewBox="0 0 30 30" fill="none" xmlns="http://www.w3.org/2000/svg">
<path d="M14.9991 6.25011C14.9977 5.75104 14.8967 5.25726 14.7021 4.7977C14.5075 4.33815 14.223 3.92208 13.8655 3.57386C13.508 3.22565 13.0846 2.9523 12.62 2.76985C12.1555 2.58739 11.6592 2.49949 11.1603 2.5113C10.6614 2.52312 10.1698 2.63441 9.71444 2.83865C9.25907 3.04288 8.84905 3.33596 8.50841 3.70071C8.16777 4.06545 7.90336 4.49453 7.73068 4.96278C7.558 5.43103 7.48053 5.92903 7.50281 6.42761C6.76806 6.61653 6.08593 6.97017 5.50809 7.46175C4.93026 7.95333 4.47185 8.56995 4.16761 9.26492C3.86337 9.95989 3.72125 10.715 3.75204 11.473C3.78283 12.231 3.9857 12.9721 4.34531 13.6401C3.71303 14.1538 3.21584 14.8141 2.89698 15.5638C2.57812 16.3134 2.44725 17.1296 2.51576 17.9413C2.58427 18.7531 2.85008 19.5358 3.29006 20.2214C3.73005 20.907 4.33089 21.4747 5.04031 21.8751C4.88587 23.0699 5.16802 24.2803 5.83484 25.2836C6.50167 26.2869 7.50833 27.0158 8.66969 27.3361C9.83105 27.6564 11.069 27.5466 12.1559 27.0269C13.2428 26.5073 14.1055 25.6126 14.5853 24.5076C14.6738 24.2867 14.7424 24.0583 14.7903 23.8251C14.8253 23.6626 15.1728 23.6626 15.2091 23.8251C15.2565 24.0582 15.3247 24.2866 15.4128 24.5076C15.8927 25.6126 16.7554 26.5073 17.8422 27.0269C18.9291 27.5466 20.1671 27.6564 21.3284 27.3361C22.4898 27.0158 23.4964 26.2869 24.1633 25.2836C24.8301 24.2803 25.1122 23.0699 24.9578 21.8751C25.6672 21.4747 26.2681 20.907 26.708 20.2214C27.148 19.5358 27.4138 18.7531 27.4824 17.9413C27.5509 17.1296 27.42 16.3134 27.1011 15.5638C26.7823 14.8141 26.2851 14.1538 25.6528 13.6401C26.0124 12.9721 26.2153 12.231 26.2461 11.473C26.2769 10.715 26.1347 9.95989 25.8305 9.26492C25.5263 8.56995 25.0679 7.95333 24.49 7.46175C23.9122 6.97017 23.2301 6.61653 22.4953 6.42761C22.5176 5.92903 22.4401 5.43103 22.2674 4.96278C22.0948 4.49453 21.8303 4.06545 21.4897 3.70071C21.1491 3.33596 20.739 3.04288 20.2837 2.83865C19.8283 2.63441 19.3367 2.52312 18.8378 2.5113C18.3389 2.49949 17.8426 2.58739 17.3781 2.76985C16.9136 2.9523 16.4901 3.22565 16.1326 3.57386C15.7751 3.92208 15.4907 4.33815 15.296 4.7977C15.1014 5.25726 15.0004 5.75104 14.9991 6.25011Z" stroke="#2958FF" stroke-width="2.5" stroke-linecap="round" stroke-linejoin="round"/>
<path d="M21.998 8.125C22.3006 7.60073 22.4717 7.01102 22.4968 6.40625" stroke="#2958FF" stroke-width="2.5" stroke-linecap="round" stroke-linejoin="round"/>
<path d="M7.50391 6.40625C7.52863 7.01092 7.69932 7.60062 8.00141 8.125" stroke="#2958FF" stroke-width="2.5" stroke-linecap="round" stroke-linejoin="round"/>
<path d="M4.3457 13.62C4.57438 13.4338 4.81908 13.2681 5.07695 13.125" stroke="#2958FF" stroke-width="2.5" stroke-linecap="round" stroke-linejoin="round"/>
<path d="M24.9219 13.125C25.1797 13.2681 25.4245 13.4338 25.6531 13.62" stroke="#2958FF" stroke-width="2.5" stroke-linecap="round" stroke-linejoin="round"/>
<path d="M7.49977 22.5C6.6383 22.5004 5.79135 22.2782 5.04102 21.855" stroke="#2958FF" stroke-width="2.5" stroke-linecap="round" stroke-linejoin="round"/>
<path d="M24.9587 21.855C24.2084 22.2782 23.3615 22.5004 22.5 22.5" stroke="#2958FF" stroke-width="2.5" stroke-linecap="round" stroke-linejoin="round"/>
<path d="M15 18.75C17.0711 18.75 18.75 17.0711 18.75 15C18.75 12.9289 17.0711 11.25 15 11.25C12.9289 11.25 11.25 12.9289 11.25 15C11.25 17.0711 12.9289 18.75 15 18.75Z" stroke="#2958FF" stroke-width="2.5" stroke-linecap="round" stroke-linejoin="round"/>
<path d="M19.625 13L18.5 13.5" stroke="#2958FF" stroke-width="2.5" stroke-linecap="round" stroke-linejoin="round"/>
<path d="M11.5 16.5L10.375 17" stroke="#2958FF" stroke-width="2.5" stroke-linecap="round" stroke-linejoin="round"/>
<path d="M17 19.625L16.5 18.5" stroke="#2958FF" stroke-width="2.5" stroke-linecap="round" stroke-linejoin="round"/>
<path d="M13.5 11.5L13 10.375" stroke="#2958FF" stroke-width="2.5" stroke-linecap="round" stroke-linejoin="round"/>
<path d="M19.625 16.875L18.5 16.375" stroke="#2958FF" stroke-width="2.5" stroke-linecap="round" stroke-linejoin="round"/>
<path d="M11.5 13.625L10.375 13.125" stroke="#2958FF" stroke-width="2.5" stroke-linecap="round" stroke-linejoin="round"/>
<path d="M13.125 19.625L13.625 18.5" stroke="#2958FF" stroke-width="2.5" stroke-linecap="round" stroke-linejoin="round"/>
<path d="M16.375 11.5L16.875 10.375" stroke="#2958FF" stroke-width="2.5" stroke-linecap="round" stroke-linejoin="round"/>
</svg>
