<svg width="30" height="30" viewBox="0 0 30 30" fill="none" xmlns="http://www.w3.org/2000/svg">
<path d="M14.9991 6.24982C15.0005 5.74986 14.902 5.25465 14.7093 4.79332C14.5166 4.33199 14.2336 3.91385 13.8769 3.5635C13.5202 3.21315 13.0971 2.93766 12.6324 2.75323C12.1677 2.56881 11.6708 2.47917 11.1709 2.48958C10.6711 2.5 10.1783 2.61027 9.72173 2.8139C9.26511 3.01753 8.85383 3.31042 8.51206 3.67532C8.17029 4.04023 7.90494 4.4698 7.73162 4.93876C7.5583 5.40772 7.4805 5.9066 7.50281 6.40607C6.76806 6.59499 6.08593 6.94863 5.50809 7.44021C4.93026 7.93179 4.47185 8.54841 4.16761 9.24338C3.86337 9.93835 3.72125 10.6934 3.75204 11.4515C3.78283 12.2095 3.9857 12.9506 4.34531 13.6186C3.71303 14.1322 3.21584 14.7926 2.89698 15.5422C2.57812 16.2919 2.44725 17.1081 2.51576 17.9198C2.58427 18.7315 2.85008 19.5143 3.29006 20.1998C3.73005 20.8854 4.33089 21.4531 5.04031 21.8536C4.9527 22.5314 5.00498 23.2199 5.19391 23.8767C5.38285 24.5335 5.70443 25.1446 6.13879 25.6723C6.57315 26.1999 7.11107 26.6329 7.71933 26.9445C8.32759 27.2561 8.99328 27.4397 9.67528 27.484C10.3573 27.5282 11.0411 27.4322 11.6845 27.2018C12.328 26.9714 12.9173 26.6116 13.4163 26.1445C13.9152 25.6774 14.313 25.113 14.5853 24.4862C14.8575 23.8593 14.9983 23.1833 14.9991 22.4998V6.24982Z" stroke="#2958FF" stroke-width="2.5" stroke-linecap="round" stroke-linejoin="round"/>
<path d="M11.25 16.25C12.2994 15.8808 13.2159 15.2087 13.8833 14.3188C14.5508 13.4288 14.9394 12.3608 15 11.25" stroke="#2958FF" stroke-width="2.5" stroke-linecap="round" stroke-linejoin="round"/>
<path d="M7.50391 6.40625C7.52863 7.01092 7.69932 7.60062 8.00141 8.125" stroke="#2958FF" stroke-width="2.5" stroke-linecap="round" stroke-linejoin="round"/>
<path d="M4.3457 13.62C4.57438 13.4338 4.81908 13.2681 5.07695 13.125" stroke="#2958FF" stroke-width="2.5" stroke-linecap="round" stroke-linejoin="round"/>
<path d="M7.49977 22.5C6.6383 22.5004 5.79135 22.2782 5.04102 21.855" stroke="#2958FF" stroke-width="2.5" stroke-linecap="round" stroke-linejoin="round"/>
<path d="M15 16.25H20" stroke="#2958FF" stroke-width="2.5" stroke-linecap="round" stroke-linejoin="round"/>
<path d="M15 22.5H22.5C23.163 22.5 23.7989 22.7634 24.2678 23.2322C24.7366 23.7011 25 24.337 25 25V26.25" stroke="#2958FF" stroke-width="2.5" stroke-linecap="round" stroke-linejoin="round"/>
<path d="M15 10H25" stroke="#2958FF" stroke-width="2.5" stroke-linecap="round" stroke-linejoin="round"/>
<path d="M20 10V6.25C20 5.58696 20.2634 4.95107 20.7322 4.48223C21.2011 4.01339 21.837 3.75 22.5 3.75" stroke="#2958FF" stroke-width="2.5" stroke-linecap="round" stroke-linejoin="round"/>
<path d="M20 16.875C20.3452 16.875 20.625 16.5952 20.625 16.25C20.625 15.9048 20.3452 15.625 20 15.625C19.6548 15.625 19.375 15.9048 19.375 16.25C19.375 16.5952 19.6548 16.875 20 16.875Z" stroke="#2958FF" stroke-width="2.5" stroke-linecap="round" stroke-linejoin="round"/>
<path d="M22.5 4.375C22.8452 4.375 23.125 4.09518 23.125 3.75C23.125 3.40482 22.8452 3.125 22.5 3.125C22.1548 3.125 21.875 3.40482 21.875 3.75C21.875 4.09518 22.1548 4.375 22.5 4.375Z" stroke="#2958FF" stroke-width="2.5" stroke-linecap="round" stroke-linejoin="round"/>
<path d="M25 26.875C25.3452 26.875 25.625 26.5952 25.625 26.25C25.625 25.9048 25.3452 25.625 25 25.625C24.6548 25.625 24.375 25.9048 24.375 26.25C24.375 26.5952 24.6548 26.875 25 26.875Z" stroke="#2958FF" stroke-width="2.5" stroke-linecap="round" stroke-linejoin="round"/>
<path d="M25 10.625C25.3452 10.625 25.625 10.3452 25.625 10C25.625 9.65482 25.3452 9.375 25 9.375C24.6548 9.375 24.375 9.65482 24.375 10C24.375 10.3452 24.6548 10.625 25 10.625Z" stroke="#2958FF" stroke-width="2.5" stroke-linecap="round" stroke-linejoin="round"/>
</svg>
