<svg width="30" height="31" viewBox="0 0 30 31" fill="none" xmlns="http://www.w3.org/2000/svg">
<path d="M3.75 9.25V6.75C3.75 6.08696 4.01339 5.45107 4.48223 4.98223C4.95107 4.51339 5.58696 4.25 6.25 4.25H8.75" stroke="#2958FF" stroke-width="2.5" stroke-linecap="round" stroke-linejoin="round"/>
<path d="M21.25 4.25H23.75C24.413 4.25 25.0489 4.51339 25.5178 4.98223C25.9866 5.45107 26.25 6.08696 26.25 6.75V9.25" stroke="#2958FF" stroke-width="2.5" stroke-linecap="round" stroke-linejoin="round"/>
<path d="M26.25 21.75V24.25C26.25 24.913 25.9866 25.5489 25.5178 26.0178C25.0489 26.4866 24.413 26.75 23.75 26.75H21.25" stroke="#2958FF" stroke-width="2.5" stroke-linecap="round" stroke-linejoin="round"/>
<path d="M8.75 26.75H6.25C5.58696 26.75 4.95107 26.4866 4.48223 26.0178C4.01339 25.5489 3.75 24.913 3.75 24.25V21.75" stroke="#2958FF" stroke-width="2.5" stroke-linecap="round" stroke-linejoin="round"/>
<path d="M15 19.25C17.0711 19.25 18.75 17.5711 18.75 15.5C18.75 13.4289 17.0711 11.75 15 11.75C12.9289 11.75 11.25 13.4289 11.25 15.5C11.25 17.5711 12.9289 19.25 15 19.25Z" stroke="#2958FF" stroke-width="2.5" stroke-linecap="round" stroke-linejoin="round"/>
<path d="M20 20.5L17.625 18.125" stroke="#2958FF" stroke-width="2.5" stroke-linecap="round" stroke-linejoin="round"/>
</svg>
