<svg width="575" height="299" viewBox="0 0 575 299" fill="none" xmlns="http://www.w3.org/2000/svg">
<g clip-path="url(#clip0_191_1351)">
<path d="M399.138 2.97173e-05L0 237.168L12.0038 257.481L411.142 20.3135L399.138 2.97173e-05Z" fill="#F2F2F2"/>
<path d="M485.89 19.8838L86.752 257.052L98.7557 277.365L497.894 40.1973L485.89 19.8838Z" fill="#F2F2F2"/>
<path d="M562.728 41.6316L163.59 278.799L175.594 299.113L574.732 61.9451L562.728 41.6316Z" fill="#F2F2F2"/>
<path d="M259.979 278.018C328.996 278.018 384.945 221.914 384.945 152.707C384.945 83.4994 328.996 27.3958 259.979 27.3958C190.963 27.3958 135.014 83.4994 135.014 152.707C135.014 221.914 190.963 278.018 259.979 278.018Z" fill="white"/>
<path d="M134.086 152.707C134.086 83.0963 190.562 26.4639 259.981 26.4639C329.4 26.4639 385.876 83.0963 385.876 152.707C385.876 222.318 329.4 278.95 259.981 278.95C190.562 278.95 134.086 222.318 134.086 152.707ZM135.945 152.707C135.945 221.29 191.587 277.086 259.981 277.086C328.375 277.086 384.017 221.29 384.017 152.707C384.017 84.1243 328.375 28.328 259.981 28.328C191.587 28.328 135.945 84.1243 135.945 152.707Z" fill="#3F3D56"/>
<path d="M237.703 153.252C237.703 148.834 239.01 144.515 241.457 140.841C243.905 137.168 247.384 134.305 251.455 132.614C255.525 130.923 260.004 130.481 264.326 131.343C268.647 132.205 272.616 134.332 275.731 137.456C278.847 140.58 280.969 144.561 281.828 148.894C282.688 153.227 282.246 157.718 280.56 161.8C278.874 165.882 276.019 169.371 272.356 171.825C268.692 174.28 264.385 175.59 259.98 175.59C254.072 175.59 248.405 173.236 244.228 169.047C240.05 164.858 237.703 159.176 237.703 153.252ZM259.98 132.003C254.362 132.01 248.976 134.25 245.003 138.234C241.031 142.217 238.796 147.618 238.79 153.252C238.79 157.454 240.033 161.562 242.361 165.057C244.689 168.551 247.999 171.274 251.871 172.883C255.743 174.491 260.003 174.912 264.114 174.092C268.224 173.272 272 171.248 274.963 168.277C277.926 165.305 279.945 161.519 280.762 157.397C281.58 153.275 281.16 149.003 279.556 145.12C277.953 141.238 275.237 137.919 271.752 135.584C268.267 133.249 264.171 132.003 259.98 132.003Z" fill="#3F3D56"/>
<path d="M217.602 153.252C217.602 144.847 220.087 136.63 224.744 129.642C229.401 122.653 236.019 117.206 243.763 113.99C251.507 110.773 260.028 109.932 268.249 111.571C276.47 113.211 284.021 117.259 289.948 123.202C295.875 129.145 299.911 136.717 301.546 144.961C303.182 153.205 302.342 161.749 299.135 169.515C295.927 177.28 290.495 183.917 283.526 188.587C276.557 193.256 268.363 195.749 259.981 195.749C254.416 195.749 248.905 194.649 243.763 192.514C238.621 190.378 233.95 187.248 230.014 183.301C226.079 179.355 222.957 174.67 220.827 169.515C218.698 164.359 217.602 158.832 217.602 153.252ZM259.981 111.845C251.814 111.845 243.831 114.273 237.04 118.823C230.249 123.373 224.957 129.84 221.831 137.406C218.706 144.972 217.888 153.298 219.482 161.33C221.075 169.362 225.008 176.74 230.783 182.531C236.558 188.322 243.915 192.265 251.925 193.863C259.935 195.461 268.238 194.641 275.783 191.507C283.329 188.373 289.778 183.066 294.315 176.256C298.852 169.447 301.274 161.441 301.274 153.252C301.262 142.274 296.907 131.749 289.166 123.986C281.425 116.223 270.929 111.857 259.981 111.845Z" fill="#CCCCCC"/>
<path d="M177.395 153.252C177.395 136.872 182.238 120.861 191.313 107.242C200.387 93.6237 213.286 83.0092 228.376 76.7411C243.467 70.4731 260.072 68.8331 276.092 72.0286C292.112 75.224 306.828 83.1113 318.378 94.693C329.927 106.275 337.793 121.031 340.979 137.095C344.166 153.16 342.531 169.811 336.28 184.943C330.029 200.076 319.444 213.009 305.863 222.109C292.282 231.209 276.314 236.066 259.98 236.066C238.085 236.041 217.093 227.308 201.611 211.783C186.128 196.257 177.419 175.208 177.395 153.252ZM259.98 71.527C243.861 71.527 228.104 76.32 214.702 85.3001C201.299 94.2801 190.853 107.044 184.685 121.977C178.516 136.91 176.903 153.342 180.047 169.195C183.192 185.048 190.954 199.61 202.352 211.04C213.75 222.469 228.271 230.253 244.081 233.406C259.89 236.559 276.277 234.941 291.169 228.755C306.061 222.57 318.789 212.095 327.745 198.655C336.7 185.216 341.48 169.415 341.48 153.252C341.455 131.584 332.861 110.812 317.582 95.4907C302.303 80.1696 281.588 71.5515 259.98 71.527Z" fill="#CCCCCC"/>
<path d="M259.979 163.058C265.681 163.058 270.303 158.424 270.303 152.707C270.303 146.989 265.681 142.355 259.979 142.355C254.278 142.355 249.656 146.989 249.656 152.707C249.656 158.424 254.278 163.058 259.979 163.058Z" fill="#2958FF"/>
<path d="M233.356 193.024C239.058 193.024 243.68 188.39 243.68 182.673C243.68 176.955 239.058 172.321 233.356 172.321C227.655 172.321 223.033 176.955 223.033 182.673C223.033 188.39 227.655 193.024 233.356 193.024Z" fill="#2958FF"/>
<path d="M337.222 188.666C342.923 188.666 347.545 184.031 347.545 178.314C347.545 172.597 342.923 167.962 337.222 167.962C331.52 167.962 326.898 172.597 326.898 178.314C326.898 184.031 331.52 188.666 337.222 188.666Z" fill="#2958FF"/>
<path d="M259.98 157.61C262.68 157.61 264.87 155.415 264.87 152.707C264.87 149.999 262.68 147.803 259.98 147.803C257.279 147.803 255.09 149.999 255.09 152.707C255.09 155.415 257.279 157.61 259.98 157.61Z" fill="#2F2E41"/>
<path d="M337.222 183.217C339.923 183.217 342.112 181.022 342.112 178.314C342.112 175.606 339.923 173.41 337.222 173.41C334.521 173.41 332.332 175.606 332.332 178.314C332.332 181.022 334.521 183.217 337.222 183.217Z" fill="#2F2E41"/>
<path d="M233.357 188.121C236.057 188.121 238.247 185.926 238.247 183.217C238.247 180.509 236.057 178.314 233.357 178.314C230.656 178.314 228.467 180.509 228.467 183.217C228.467 185.926 230.656 188.121 233.357 188.121Z" fill="#2F2E41"/>
<path d="M31.7806 102.582C34.4812 102.582 36.6705 100.387 36.6705 97.6789C36.6705 94.9707 34.4812 92.7754 31.7806 92.7754C29.0799 92.7754 26.8906 94.9707 26.8906 97.6789C26.8906 100.387 29.0799 102.582 31.7806 102.582Z" fill="#2958FF"/>
<path d="M259.709 97.9517H45.0938V96.8621H260.796V152.979H259.709V97.9517Z" fill="#2F2E41"/>
<path d="M17.6543 97.6788C17.6543 94.8771 18.4828 92.1384 20.035 89.8088C21.5873 87.4793 23.7935 85.6637 26.3748 84.5915C28.9561 83.5193 31.7965 83.2388 34.5368 83.7854C37.2771 84.332 39.7942 85.6811 41.7698 87.6622C43.7454 89.6433 45.0909 92.1674 45.6359 94.9152C46.181 97.6631 45.9013 100.511 44.8321 103.1C43.7629 105.688 41.9522 107.901 39.6291 109.457C37.306 111.014 34.5748 111.844 31.7809 111.844C29.9257 111.844 28.0888 111.478 26.3749 110.766C24.6609 110.054 23.1036 109.011 21.7919 107.695C20.4801 106.38 19.4395 104.818 18.7296 103.1C18.0197 101.381 17.6543 99.5391 17.6543 97.6788ZM31.7809 84.6029C29.2018 84.6029 26.6807 85.3698 24.5363 86.8066C22.3919 88.2434 20.7205 90.2856 19.7336 92.6749C18.7466 95.0642 18.4884 97.6933 18.9915 100.23C19.4947 102.766 20.7366 105.096 22.5602 106.925C24.3839 108.754 26.7074 109.999 29.2369 110.504C31.7664 111.008 34.3883 110.749 36.771 109.759C39.1537 108.77 41.1903 107.094 42.6231 104.943C44.0559 102.793 44.8207 100.265 44.8207 97.6788C44.8168 94.2121 43.4417 90.8885 40.9971 88.4371C38.5525 85.9858 35.238 84.6069 31.7809 84.6029Z" fill="#2F2E41"/>
<path d="M64.3821 243.693C67.0828 243.693 69.2721 241.498 69.2721 238.79C69.2721 236.082 67.0828 233.886 64.3821 233.886C61.6815 233.886 59.4922 236.082 59.4922 238.79C59.4922 241.498 61.6815 243.693 64.3821 243.693Z" fill="#2958FF"/>
<path d="M50.2559 238.79C50.2559 235.988 51.0844 233.25 52.6366 230.92C54.1888 228.591 56.3951 226.775 58.9764 225.703C61.5577 224.631 64.3981 224.35 67.1383 224.897C69.8786 225.443 72.3957 226.792 74.3714 228.774C76.347 230.755 77.6924 233.279 78.2375 236.027C78.7826 238.774 78.5028 241.623 77.4336 244.211C76.3644 246.799 74.5538 249.012 72.2307 250.568C69.9076 252.125 67.1763 252.956 64.3824 252.956C60.6358 252.956 57.0427 251.463 54.3934 248.807C51.7442 246.15 50.2559 242.547 50.2559 238.79ZM64.3824 225.714C61.8033 225.714 59.2822 226.481 57.1378 227.918C54.9934 229.355 53.3221 231.397 52.3351 233.786C51.3481 236.175 51.0899 238.805 51.5931 241.341C52.0962 243.878 53.3381 246.207 55.1618 248.036C56.9854 249.865 59.3089 251.11 61.8384 251.615C64.3679 252.119 66.9898 251.86 69.3725 250.871C71.7552 249.881 73.7918 248.205 75.2246 246.055C76.6575 243.904 77.4223 241.376 77.4223 238.79C77.4183 235.323 76.0432 232 73.5986 229.548C71.154 227.097 67.8396 225.718 64.3824 225.714Z" fill="#2F2E41"/>
<path d="M488.812 125.465C491.512 125.465 493.702 123.27 493.702 120.562C493.702 117.854 491.512 115.658 488.812 115.658C486.111 115.658 483.922 117.854 483.922 120.562C483.922 123.27 486.111 125.465 488.812 125.465Z" fill="#2958FF"/>
<path d="M474.684 120.562C474.684 117.76 475.512 115.021 477.064 112.692C478.617 110.362 480.823 108.547 483.404 107.475C485.985 106.402 488.826 106.122 491.566 106.668C494.306 107.215 496.823 108.564 498.799 110.545C500.775 112.526 502.12 115.05 502.665 117.798C503.21 120.546 502.931 123.394 501.861 125.983C500.792 128.571 498.982 130.784 496.658 132.34C494.335 133.897 491.604 134.727 488.81 134.727C486.955 134.727 485.118 134.361 483.404 133.649C481.69 132.937 480.133 131.894 478.821 130.578C477.509 129.263 476.469 127.701 475.759 125.983C475.049 124.264 474.684 122.422 474.684 120.562ZM488.81 107.486C485.353 107.49 482.039 108.869 479.594 111.32C477.149 113.772 475.774 117.095 475.77 120.562C475.77 123.148 476.535 125.676 477.968 127.826C479.401 129.977 481.437 131.653 483.82 132.642C486.203 133.632 488.825 133.891 491.354 133.387C493.884 132.882 496.207 131.637 498.031 129.808C499.854 127.979 501.096 125.649 501.599 123.113C502.103 120.576 501.844 117.947 500.857 115.558C499.87 113.169 498.199 111.126 496.055 109.69C493.91 108.253 491.389 107.486 488.81 107.486Z" fill="#2F2E41"/>
<path d="M336.678 122.205L475.218 120.017L475.235 121.106L337.764 123.277V178.314H336.678V122.205Z" fill="#2F2E41"/>
<path d="M77.9648 238.245H232.813V183.218H233.9V239.334H77.9648V238.245Z" fill="#2F2E41"/>
<path d="M61.6646 123.286H1.89844V127.1H61.6646V123.286Z" fill="#CCCCCC"/>
<path d="M61.6646 134.183H1.89844V137.996H61.6646V134.183Z" fill="#CCCCCC"/>
<path d="M61.6646 145.079H1.89844V148.893H61.6646V145.079Z" fill="#CCCCCC"/>
<path d="M94.2642 264.397H34.498V268.211H94.2642V264.397Z" fill="#CCCCCC"/>
<path d="M94.2642 275.294H34.498V279.108H94.2642V275.294Z" fill="#CCCCCC"/>
<path d="M94.2642 286.19H34.498V290.004H94.2642V286.19Z" fill="#CCCCCC"/>
<path d="M518.694 146.714H458.928V150.528H518.694V146.714Z" fill="#CCCCCC"/>
<path d="M518.694 157.61H458.928V161.424H518.694V157.61Z" fill="#CCCCCC"/>
<path d="M518.694 168.507H458.928V172.321H518.694V168.507Z" fill="#CCCCCC"/>
</g>
<defs>
<clipPath id="clip0_191_1351">
<rect width="575" height="299" fill="white"/>
</clipPath>
</defs>
</svg>
