<svg width="227" height="33" viewBox="0 0 227 33" fill="none" xmlns="http://www.w3.org/2000/svg">
<path d="M35.3371 1.00164L34.585 2.46965C34.393 2.77045 34.1913 3.18077 33.9225 3.73005C33.8073 3.96382 33.6937 4.19923 33.5784 4.433L33.5768 4.43627C31.3172 9.05447 29.0593 13.6841 26.7116 18.4887C26.4572 18.0146 26.2652 17.6844 26.0987 17.3427C24.7225 14.5326 23.3335 11.7289 21.9636 8.91552H21.962L18.1086 1.00164H18.0445H16.0282L15.2521 2.70015C11.5394 10.341 7.80117 17.9672 4.06613 25.5966L1 32H3.64365H3.77648L5.82003 27.6548C9.36465 20.3131 12.9669 12.9992 16.5531 5.67705C16.7051 5.36645 16.8859 5.06892 17.1276 4.62754C18.1646 6.74129 19.0815 8.69646 20.0849 10.6042C20.4754 11.348 20.429 11.9268 20.0609 12.6624C17.5133 17.7596 14.9992 22.8748 12.482 27.9867L10.4576 31.9984H13.3685L16.0298 26.2816C16.5307 25.2713 17.0412 24.2643 17.5581 23.2622C17.7261 22.9352 18.2222 22.6018 18.5774 22.5903C19.1167 22.5707 19.6544 22.5592 20.1937 22.5511L27.3438 22.5282L29.2401 18.899C31.8757 13.5566 34.4842 8.20113 37.1006 2.84892C37.1247 2.79987 37.1471 2.74756 37.1711 2.69852L38 1H35.3371V1.00164ZM19.1103 20.0711C20.0353 18.1225 20.893 16.3161 21.8564 14.289C22.8502 16.3177 23.7383 18.1339 24.6873 20.0711C22.7638 20.0711 21.0019 20.0711 19.1103 20.0711Z" fill="#2958FF" stroke="#2958FF" stroke-width="1.18108" stroke-miterlimit="10"/>
<path d="M60.4607 25.1228L59.1779 22.0174H50.6807L49.3978 25.1228H45.0901L52.8251 7.88232H57.1329L64.8158 25.1228H60.4607ZM54.9695 11.7498L52.1387 18.5476H57.753L54.9695 11.7498Z" fill="#2958FF"/>
<path d="M78.6245 8.63013C79.6186 9.13191 80.3855 9.85144 80.9251 10.784C81.4648 11.7213 81.7393 12.8101 81.7393 14.0598C81.7393 15.3095 81.4695 16.3983 80.9251 17.3356C80.3855 18.2729 79.6138 18.9877 78.6245 19.4895C77.6304 19.9912 76.4706 20.2421 75.1404 20.2421H70.9273V25.1179H66.8894V7.87744H75.1404C76.4706 7.88218 77.6304 8.13308 78.6245 8.63013ZM76.9771 16.0101C77.4789 15.532 77.7298 14.8929 77.7298 14.0882C77.7298 13.2834 77.4789 12.6444 76.9771 12.1663C76.4753 11.6929 75.7984 11.4515 74.9463 11.4515H70.9084V16.7202H74.9463C75.7984 16.7202 76.4753 16.4835 76.9771 16.0101Z" fill="#2958FF"/>
<path d="M96.1868 8.63013C97.1809 9.13191 97.9477 9.85144 98.4874 10.784C99.027 11.7213 99.3016 12.8101 99.3016 14.0598C99.3016 15.3095 99.0318 16.3983 98.4874 17.3356C97.9477 18.2729 97.1761 18.9877 96.1868 19.4895C95.1927 19.9912 94.0329 20.2421 92.7027 20.2421H88.4896V25.1179H84.4517V7.87744H92.7027C94.0281 7.88218 95.1927 8.13308 96.1868 8.63013ZM94.5347 16.0101C95.0365 15.532 95.2873 14.8929 95.2873 14.0882C95.2873 13.2834 95.0365 12.6444 94.5347 12.1663C94.0329 11.6929 93.3559 11.4515 92.5039 11.4515H88.4659V16.7202H92.5039C93.3559 16.7202 94.0329 16.4835 94.5347 16.0101Z" fill="#2958FF"/>
<path d="M102.009 7.88208H106.047V21.4775H114.715V25.1226H102.005V7.88208H102.009Z" fill="#2958FF"/>
<path d="M117.375 7.88208H121.413V25.1226H117.375V7.88208Z" fill="#2958FF"/>
<path d="M136.931 7.88218H140.945V25.1227H137.323L129.517 14.4574L129.565 19.1107V25.1179H125.551V7.87744H129.172L136.978 18.59L136.931 13.9841V7.88218Z" fill="#2958FF"/>
<path d="M148.973 21.7237H158.479V25.1226H145.058V7.88208H158.209V11.2573H148.973V14.7556H157.717V18.0077H148.973V21.7237Z" fill="#2958FF"/>
<path d="M165.745 21.7237H175.251V25.1226H161.83V7.88208H174.981V11.2573H165.745V14.7556H174.489V18.0077H165.745V21.7237Z" fill="#2958FF"/>
<path d="M190.337 8.93781C191.677 9.64314 192.709 10.6514 193.442 11.9532C194.171 13.2598 194.536 14.7746 194.536 16.4977C194.536 18.2208 194.171 19.7356 193.442 21.0421C192.713 22.3487 191.677 23.3522 190.337 24.0576C188.997 24.7629 187.445 25.1179 185.67 25.1179H178.602V7.87744H185.67C187.445 7.88218 188.997 8.23247 190.337 8.93781ZM189.168 20.2185C190.053 19.3001 190.498 18.0598 190.498 16.4977C190.498 15.4657 190.299 14.5663 189.897 13.7994C189.495 13.0373 188.926 12.4456 188.197 12.0243C187.468 11.6077 186.626 11.3946 185.674 11.3946H182.645V21.5913H185.674C187.113 21.6007 188.283 21.1368 189.168 20.2185Z" fill="#2958FF"/>
<path d="M216.084 25.1226L214.801 22.0172H206.304L205.021 25.1226H200.714L208.449 7.88208H212.756L220.439 25.1226H216.084ZM210.593 11.7496L207.762 18.5473H213.377L210.593 11.7496Z" fill="#2958FF"/>
<path d="M222.513 7.88208H226.551V25.1226H222.513V7.88208Z" fill="#2958FF"/>
</svg>
